<svg width="133" height="75" viewBox="0 0 133 75" fill="none" xmlns="http://www.w3.org/2000/svg">
<path d="M49.5455 24.7812C49.0483 23.053 48.3499 21.526 47.4503 20.2003C46.5507 18.8509 45.4498 17.7145 44.1477 16.7912C42.8693 15.8442 41.4015 15.1222 39.7443 14.625C38.1108 14.1278 36.2997 13.8793 34.3111 13.8793C30.5942 13.8793 27.3272 14.8026 24.5099 16.6491C21.7164 18.4957 19.5384 21.1828 17.9759 24.7102C16.4134 28.214 15.6321 32.4991 15.6321 37.5653C15.6321 42.6316 16.4015 46.9403 17.9403 50.4915C19.4792 54.0426 21.6572 56.7533 24.4744 58.6236C27.2917 60.4702 30.6179 61.3935 34.4531 61.3935C37.9332 61.3935 40.9044 60.7779 43.3665 59.5469C45.8523 58.2921 47.7462 56.5284 49.0483 54.2557C50.3741 51.983 51.0369 49.2959 51.0369 46.1946L54.1619 46.6562H35.4119V35.0795H65.8452V44.2415C65.8452 50.6335 64.4957 56.1259 61.7969 60.7188C59.098 65.2879 55.3812 68.8153 50.6463 71.3011C45.9115 73.7633 40.4901 74.9943 34.3821 74.9943C27.5639 74.9943 21.5743 73.491 16.4134 70.4844C11.2524 67.4541 7.22775 63.1572 4.33949 57.5938C1.47491 52.0066 0.0426137 45.3778 0.0426137 37.7074C0.0426137 31.8125 0.894886 26.5568 2.59943 21.9403C4.32765 17.3002 6.74242 13.3703 9.84375 10.1506C12.9451 6.93087 16.5554 4.48058 20.6747 2.79971C24.794 1.11884 29.2566 0.278406 34.0625 0.278406C38.1818 0.278406 42.017 0.8821 45.5682 2.08949C49.1193 3.2732 52.268 4.95407 55.0142 7.1321C57.7841 9.31013 60.045 11.9025 61.7969 14.9091C63.5488 17.892 64.6733 21.1828 65.1705 24.7812H49.5455ZM77.3952 74V1.27273H106.088C111.605 1.27273 116.304 2.32623 120.186 4.43324C124.069 6.51657 127.028 9.41666 129.064 13.1335C131.124 16.8267 132.154 21.0881 132.154 25.9176C132.154 30.7472 131.112 35.0085 129.029 38.7017C126.945 42.3949 123.927 45.2713 119.973 47.331C116.043 49.3906 111.285 50.4205 105.698 50.4205H87.4094V38.098H103.212C106.171 38.098 108.61 37.589 110.527 36.571C112.469 35.5294 113.913 34.0971 114.86 32.2741C115.83 30.4276 116.316 28.3087 116.316 25.9176C116.316 23.5028 115.83 21.3958 114.86 19.5966C113.913 17.7737 112.469 16.3651 110.527 15.3707C108.586 14.3527 106.124 13.8438 103.141 13.8438H92.7717V74H77.3952Z" fill="#ED143D"/>
</svg>
