<svg width="192" height="192" viewBox="0 0 192 192" fill="none" xmlns="http://www.w3.org/2000/svg">
<path d="M75.8182 80C75.1818 77.7879 74.2879 75.8333 73.1364 74.1364C71.9849 72.4091 70.5758 70.9545 68.9091 69.7727C67.2727 68.5606 65.3939 67.6364 63.2727 67C61.1818 66.3636 58.8636 66.0455 56.3182 66.0455C51.5606 66.0455 47.3788 67.2273 43.7727 69.5909C40.197 71.9545 37.4091 75.3939 35.4091 79.9091C33.4091 84.3939 32.4091 89.8788 32.4091 96.3636C32.4091 102.848 33.3939 108.364 35.3636 112.909C37.3333 117.455 40.1212 120.924 43.7273 123.318C47.3333 125.682 51.5909 126.864 56.5 126.864C60.9545 126.864 64.7576 126.076 67.9091 124.5C71.0909 122.894 73.5152 120.636 75.1818 117.727C76.8788 114.818 77.7273 111.379 77.7273 107.409L81.7273 108H57.7273V93.1818H96.6818V104.909C96.6818 113.091 94.9545 120.121 91.5 126C88.0455 131.848 83.2879 136.364 77.2273 139.545C71.1667 142.697 64.2273 144.273 56.4091 144.273C47.6818 144.273 40.0152 142.348 33.4091 138.5C26.803 134.621 21.6515 129.121 17.9545 122C14.2879 114.848 12.4545 106.364 12.4545 96.5455C12.4545 89 13.5455 82.2727 15.7273 76.3636C17.9394 70.4242 21.0303 65.3939 25 61.2727C28.9697 57.1515 33.5909 54.0151 38.8636 51.8636C44.1364 49.7121 49.8485 48.6364 56 48.6364C61.2727 48.6364 66.1818 49.4091 70.7273 50.9545C75.2727 52.4697 79.303 54.6212 82.8182 57.4091C86.3636 60.197 89.2576 63.5151 91.5 67.3636C93.7424 71.1818 95.1818 75.3939 95.8182 80H75.8182ZM111.466 143V49.9091H148.193C155.254 49.9091 161.269 51.2576 166.239 53.9545C171.208 56.6212 174.996 60.3333 177.602 65.0909C180.239 69.8182 181.557 75.2727 181.557 81.4545C181.557 87.6364 180.223 93.0909 177.557 97.8182C174.89 102.545 171.027 106.227 165.966 108.864C160.936 111.5 154.845 112.818 147.693 112.818H124.284V97.0455H144.511C148.299 97.0455 151.42 96.3939 153.875 95.0909C156.36 93.7576 158.208 91.9242 159.42 89.5909C160.663 87.2273 161.284 84.5151 161.284 81.4545C161.284 78.3636 160.663 75.6667 159.42 73.3636C158.208 71.0303 156.36 69.2273 153.875 67.9545C151.39 66.6515 148.239 66 144.42 66H131.148V143H111.466Z" fill="#ED143D"/>
</svg>
