{"asset":{"version":"2.0","generator":"THREE.GLTFExporter"},"scenes":[{"name":"AuxScene","nodes":[23]}],"scene":0,"nodes":[{"name":"Mesh_body014","mesh":0},{"name":"Mesh_body014_1","mesh":1},{"name":"Mesh_body014_2","mesh":2},{"name":"Mesh_body014_3","mesh":3},{"name":"body005","extras":{"name":"body.005"},"children":[0,1,2,3]},{"name":"Mesh_wheel_frontLeft028","mesh":4},{"name":"Mesh_wheel_frontLeft028_1","mesh":5},{"name":"Mesh_wheel_frontLeft028_2","mesh":6},{"name":"wheel_backLeft005","extras":{"name":"wheel_backLeft.005"},"children":[5,6,7]},{"name":"Mesh_wheel_frontLeft029","mesh":7},{"name":"Mesh_wheel_frontLeft029_1","mesh":8},{"name":"Mesh_wheel_frontLeft029_2","mesh":9},{"name":"wheel_backRight005","extras":{"name":"wheel_backRight.005"},"children":[9,10,11]},{"name":"Mesh_wheel_frontLeft030","mesh":10},{"name":"Mesh_wheel_frontLeft030_1","mesh":11},{"name":"Mesh_wheel_frontLeft030_2","mesh":12},{"name":"wheel_frontLeft005","extras":{"name":"wheel_frontLeft.005"},"children":[13,14,15]},{"name":"Mesh_wheel_frontLeft011","mesh":13},{"name":"Mesh_wheel_frontLeft011_1","mesh":14},{"name":"Mesh_wheel_frontLeft011_2","mesh":15},{"name":"wheel_frontRight005","extras":{"name":"wheel_frontRight.005"},"children":[17,18,19]},{"name":"race","extras":{"name":"race"},"children":[4,8,12,16,20]},{"name":"tmpParent018","extras":{"name":"tmpParent.018"},"children":[21]},{"name":"Scene","children":[22]}],"bufferViews":[{"buffer":0,"byteOffset":0,"byteLength":6648,"target":34962,"byteStride":12},{"buffer":0,"byteOffset":6648,"byteLength":6648,"target":34962,"byteStride":12},{"buffer":0,"byteOffset":13296,"byteLength":4432,"target":34962,"byteStride":8},{"buffer":0,"byteOffset":17728,"byteLength":2376,"target":34963},{"buffer":0,"byteOffset":20104,"byteLength":10584,"target":34962,"byteStride":12},{"buffer":0,"byteOffset":30688,"byteLength":10584,"target":34962,"byteStride":12},{"buffer":0,"byteOffset":41272,"byteLength":7056,"target":34962,"byteStride":8},{"buffer":0,"byteOffset":48328,"byteLength":4632,"target":34963},{"buffer":0,"byteOffset":52960,"byteLength":576,"target":34962,"byteStride":12},{"buffer":0,"byteOffset":53536,"byteLength":576,"target":34962,"byteStride":12},{"buffer":0,"byteOffset":54112,"byteLength":384,"target":34962,"byteStride":8},{"buffer":0,"byteOffset":54496,"byteLength":288,"target":34963},{"buffer":0,"byteOffset":54784,"byteLength":144,"target":34962,"byteStride":12},{"buffer":0,"byteOffset":54928,"byteLength":144,"target":34962,"byteStride":12},{"buffer":0,"byteOffset":55072,"byteLength":96,"target":34962,"byteStride":8},{"buffer":0,"byteOffset":55168,"byteLength":48,"target":34963},{"buffer":0,"byteOffset":55216,"byteLength":3096,"target":34962,"byteStride":12},{"buffer":0,"byteOffset":58312,"byteLength":3096,"target":34962,"byteStride":12},{"buffer":0,"byteOffset":61408,"byteLength":2064,"target":34962,"byteStride":8},{"buffer":0,"byteOffset":63472,"byteLength":1416,"target":34963},{"buffer":0,"byteOffset":64888,"byteLength":3552,"target":34962,"byteStride":12},{"buffer":0,"byteOffset":68440,"byteLength":3552,"target":34962,"byteStride":12},{"buffer":0,"byteOffset":71992,"byteLength":2368,"target":34962,"byteStride":8},{"buffer":0,"byteOffset":74360,"byteLength":1416,"target":34963},{"buffer":0,"byteOffset":75776,"byteLength":1560,"target":34962,"byteStride":12},{"buffer":0,"byteOffset":77336,"byteLength":1560,"target":34962,"byteStride":12},{"buffer":0,"byteOffset":78896,"byteLength":1040,"target":34962,"byteStride":8},{"buffer":0,"byteOffset":79936,"byteLength":576,"target":34963},{"buffer":0,"byteOffset":80512,"byteLength":3072,"target":34962,"byteStride":12},{"buffer":0,"byteOffset":83584,"byteLength":3072,"target":34962,"byteStride":12},{"buffer":0,"byteOffset":86656,"byteLength":2048,"target":34962,"byteStride":8},{"buffer":0,"byteOffset":88704,"byteLength":1416,"target":34963},{"buffer":0,"byteOffset":90120,"byteLength":3456,"target":34962,"byteStride":12},{"buffer":0,"byteOffset":93576,"byteLength":3456,"target":34962,"byteStride":12},{"buffer":0,"byteOffset":97032,"byteLength":2304,"target":34962,"byteStride":8},{"buffer":0,"byteOffset":99336,"byteLength":1416,"target":34963},{"buffer":0,"byteOffset":100752,"byteLength":1608,"target":34962,"byteStride":12},{"buffer":0,"byteOffset":102360,"byteLength":1608,"target":34962,"byteStride":12},{"buffer":0,"byteOffset":103968,"byteLength":1072,"target":34962,"byteStride":8},{"buffer":0,"byteOffset":105040,"byteLength":576,"target":34963},{"buffer":0,"byteOffset":105616,"byteLength":3096,"target":34962,"byteStride":12},{"buffer":0,"byteOffset":108712,"byteLength":3096,"target":34962,"byteStride":12},{"buffer":0,"byteOffset":111808,"byteLength":2064,"target":34962,"byteStride":8},{"buffer":0,"byteOffset":113872,"byteLength":1416,"target":34963},{"buffer":0,"byteOffset":115288,"byteLength":3480,"target":34962,"byteStride":12},{"buffer":0,"byteOffset":118768,"byteLength":3480,"target":34962,"byteStride":12},{"buffer":0,"byteOffset":122248,"byteLength":2320,"target":34962,"byteStride":8},{"buffer":0,"byteOffset":124568,"byteLength":1416,"target":34963},{"buffer":0,"byteOffset":125984,"byteLength":1512,"target":34962,"byteStride":12},{"buffer":0,"byteOffset":127496,"byteLength":1512,"target":34962,"byteStride":12},{"buffer":0,"byteOffset":129008,"byteLength":1008,"target":34962,"byteStride":8},{"buffer":0,"byteOffset":130016,"byteLength":576,"target":34963},{"buffer":0,"byteOffset":130592,"byteLength":3072,"target":34962,"byteStride":12},{"buffer":0,"byteOffset":133664,"byteLength":3072,"target":34962,"byteStride":12},{"buffer":0,"byteOffset":136736,"byteLength":2048,"target":34962,"byteStride":8},{"buffer":0,"byteOffset":138784,"byteLength":1416,"target":34963},{"buffer":0,"byteOffset":140200,"byteLength":3264,"target":34962,"byteStride":12},{"buffer":0,"byteOffset":143464,"byteLength":3264,"target":34962,"byteStride":12},{"buffer":0,"byteOffset":146728,"byteLength":2176,"target":34962,"byteStride":8},{"buffer":0,"byteOffset":148904,"byteLength":1416,"target":34963},{"buffer":0,"byteOffset":150320,"byteLength":1392,"target":34962,"byteStride":12},{"buffer":0,"byteOffset":151712,"byteLength":1392,"target":34962,"byteStride":12},{"buffer":0,"byteOffset":153104,"byteLength":928,"target":34962,"byteStride":8},{"buffer":0,"byteOffset":154032,"byteLength":576,"target":34963}],"buffers":[{"byteLength":154608,"uri":"data:application/octet-stream;base64,"}],"accessors":[{"bufferView":0,"componentType":5126,"count":554,"max":[0.5497669577598572,0.7328847646713257,1.0798861980438232],"min":[-0.550000011920929,0.10000000149011612,-1.279886245727539],"type":"VEC3"},{"bufferView":1,"componentType":5126,"count":554,"max":[1,1,1],"min":[-1,-1,-1],"type":"VEC3"},{"bufferView":2,"componentType":5126,"count":554,"max":[50.43980407714844,51.38922119140625],"min":[-50.38922119140625,-52.173118591308594],"type":"VEC2"},{"bufferView":3,"componentType":5125,"count":594,"max":[553],"min":[0],"type":"SCALAR"},{"bufferView":4,"componentType":5126,"count":882,"max":[0.6004794239997864,0.732752799987793,1.279886245727539],"min":[-0.6000000834465027,0.10000000149011612,-1.279886245727539],"type":"VEC3"},{"bufferView":5,"componentType":5126,"count":882,"max":[1,1,1],"min":[-1,-1,-1],"type":"VEC3"},{"bufferView":6,"componentType":5126,"count":882,"max":[50.38922119140625,51.38922119140625],"min":[-50.38922119140625,-49.38922119140625],"type":"VEC2"},{"bufferView":7,"componentType":5125,"count":1158,"max":[881],"min":[0],"type":"SCALAR"},{"bufferView":8,"componentType":5126,"count":48,"max":[0.25199997425079346,0.6325794458389282,0.09676390886306763],"min":[-0.25200003385543823,0.4885442852973938,-0.2031247317790985],"type":"VEC3"},{"bufferView":9,"componentType":5126,"count":48,"max":[0.9809349179267883,0,1],"min":[-0.9809349179267883,0,0.19433622062206268],"type":"VEC3"},{"bufferView":10,"componentType":5126,"count":48,"max":[9.791725158691406,-14.299935340881348],"min":[-9.791725158691406,-19.966310501098633],"type":"VEC2"},{"bufferView":11,"componentType":5125,"count":72,"max":[47],"min":[0],"type":"SCALAR"},{"bufferView":12,"componentType":5126,"count":12,"max":[0.550000011920929,0.48849543929100037,0.06548900902271271],"min":[-0.550000011920929,0.3885442912578583,0.06548900902271271],"type":"VEC3"},{"bufferView":13,"componentType":5126,"count":12,"max":[0,0,-1],"min":[0,0,-1],"type":"VEC3"},{"bufferView":14,"componentType":5126,"count":12,"max":[21.653545379638672,-1.5755987167358398],"min":[-6.515316963195801,-14.297019958496094],"type":"VEC2"},{"bufferView":15,"componentType":5125,"count":12,"max":[11],"min":[0],"type":"SCALAR"},{"bufferView":16,"componentType":5126,"count":258,"max":[0.650146484375,0.6000000238418579,-0.5801137685775757],"min":[0.34999990463256836,0,-1.1801137924194336],"type":"VEC3"},{"bufferView":17,"componentType":5126,"count":258,"max":[0.41540655493736267,1,1],"min":[-1,-1,-1],"type":"VEC3"},{"bufferView":18,"componentType":5126,"count":258,"max":[11.811023712158203,12.811023712158203],"min":[-11.811023712158203,-10.811023712158203],"type":"VEC2"},{"bufferView":19,"componentType":5125,"count":354,"max":[257],"min":[0],"type":"SCALAR"},{"bufferView":20,"componentType":5126,"count":296,"max":[0.650039553642273,0.4648802578449249,-0.715233564376831],"min":[0.5499998927116394,0.13511982560157776,-1.0449939966201782],"type":"VEC3"},{"bufferView":21,"componentType":5126,"count":296,"max":[1,0.9654290676116943,0.9654290676116943],"min":[0.2606658935546875,-0.9654290676116943,-0.9654290676116943],"type":"VEC3"},{"bufferView":22,"componentType":5126,"count":296,"max":[12.530474662780762,12.4423189163208],"min":[-12.530474662780762,-10.438353538513184],"type":"VEC2"},{"bufferView":23,"componentType":5125,"count":354,"max":[295],"min":[0],"type":"SCALAR"},{"bufferView":24,"componentType":5126,"count":130,"max":[0.6499999165534973,0.5550000071525574,-0.6251137256622314],"min":[0.6499999165534973,0.04500001668930054,-1.1351137161254883],"type":"VEC3"},{"bufferView":25,"componentType":5126,"count":130,"max":[1,0,0],"min":[1,0,0],"type":"VEC3"},{"bufferView":26,"componentType":5126,"count":130,"max":[10.0393705368042,11.0393705368042],"min":[-10.0393705368042,-9.0393705368042],"type":"VEC2"},{"bufferView":27,"componentType":5125,"count":144,"max":[129],"min":[0],"type":"SCALAR"},{"bufferView":28,"componentType":5126,"count":256,"max":[-0.349853515625,0.6000000238418579,-0.5801136493682861],"min":[-0.6500000953674316,0,-1.180113673210144],"type":"VEC3"},{"bufferView":29,"componentType":5126,"count":256,"max":[1,1,1],"min":[-0.41540634632110596,-1,-1],"type":"VEC3"},{"bufferView":30,"componentType":5126,"count":256,"max":[11.811023712158203,12.811023712158203],"min":[-11.811023712158203,-10.811023712158203],"type":"VEC2"},{"bufferView":31,"componentType":5125,"count":354,"max":[255],"min":[0],"type":"SCALAR"},{"bufferView":32,"componentType":5126,"count":288,"max":[-0.5499604344367981,0.4648802578449249,-0.7152334451675415],"min":[-0.6500000953674316,0.13511982560157776,-1.0449938774108887],"type":"VEC3"},{"bufferView":33,"componentType":5126,"count":288,"max":[-0.2606658935546875,0.9654290676116943,0.9654290676116943],"min":[-1,-0.9654290676116943,-0.9654290676116943],"type":"VEC3"},{"bufferView":34,"componentType":5126,"count":288,"max":[12.530474662780762,12.4423189163208],"min":[-12.530474662780762,-10.438353538513184],"type":"VEC2"},{"bufferView":35,"componentType":5125,"count":354,"max":[287],"min":[0],"type":"SCALAR"},{"bufferView":36,"componentType":5126,"count":134,"max":[-0.6500000953674316,0.5550000071525574,-0.6251136064529419],"min":[-0.6500000953674316,0.04500001668930054,-1.1351135969161987],"type":"VEC3"},{"bufferView":37,"componentType":5126,"count":134,"max":[-1,0,0],"min":[-1,0,0],"type":"VEC3"},{"bufferView":38,"componentType":5126,"count":134,"max":[10.0393705368042,11.0393705368042],"min":[-10.0393705368042,-9.0393705368042],"type":"VEC2"},{"bufferView":39,"componentType":5125,"count":144,"max":[133],"min":[0],"type":"SCALAR"},{"bufferView":40,"componentType":5126,"count":258,"max":[0.6501466035842896,0.6000000238418579,0.9398861527442932],"min":[0.3500000536441803,0,0.3398861289024353],"type":"VEC3"},{"bufferView":41,"componentType":5126,"count":258,"max":[0.41540655493736267,1,1],"min":[-1,-1,-1],"type":"VEC3"},{"bufferView":42,"componentType":5126,"count":258,"max":[11.811023712158203,12.811023712158203],"min":[-11.811023712158203,-10.811023712158203],"type":"VEC2"},{"bufferView":43,"componentType":5125,"count":354,"max":[257],"min":[0],"type":"SCALAR"},{"bufferView":44,"componentType":5126,"count":290,"max":[0.6500397324562073,0.46488019824028015,0.8047662973403931],"min":[0.5500000715255737,0.13511982560157776,0.47500595450401306],"type":"VEC3"},{"bufferView":45,"componentType":5126,"count":290,"max":[1,0.9654290676116943,0.9654290676116943],"min":[0.2606658935546875,-0.9654290676116943,-0.9654290676116943],"type":"VEC3"},{"bufferView":46,"componentType":5126,"count":290,"max":[12.530474662780762,12.4423189163208],"min":[-12.530474662780762,-10.438353538513184],"type":"VEC2"},{"bufferView":47,"componentType":5125,"count":354,"max":[289],"min":[0],"type":"SCALAR"},{"bufferView":48,"componentType":5126,"count":126,"max":[0.6500000953674316,0.5550000071525574,0.8948861360549927],"min":[0.6500000953674316,0.04500001668930054,0.38488614559173584],"type":"VEC3"},{"bufferView":49,"componentType":5126,"count":126,"max":[1,0,0],"min":[1,0,0],"type":"VEC3"},{"bufferView":50,"componentType":5126,"count":126,"max":[10.0393705368042,11.0393705368042],"min":[-10.0393705368042,-9.0393705368042],"type":"VEC2"},{"bufferView":51,"componentType":5125,"count":144,"max":[125],"min":[0],"type":"SCALAR"},{"bufferView":52,"componentType":5126,"count":256,"max":[-0.34985336661338806,0.6000000834465027,0.9398863315582275],"min":[-0.6499999761581421,0,0.33988624811172485],"type":"VEC3"},{"bufferView":53,"componentType":5126,"count":256,"max":[1,1,1],"min":[-0.41540634632110596,-1,-1],"type":"VEC3"},{"bufferView":54,"componentType":5126,"count":256,"max":[11.811023712158203,12.811023712158203],"min":[-11.811023712158203,-10.811023712158203],"type":"VEC2"},{"bufferView":55,"componentType":5125,"count":354,"max":[255],"min":[0],"type":"SCALAR"},{"bufferView":56,"componentType":5126,"count":272,"max":[-0.5499603152275085,0.46488019824028015,0.8047664761543274],"min":[-0.6499999761581421,0.13511982560157776,0.475006103515625],"type":"VEC3"},{"bufferView":57,"componentType":5126,"count":272,"max":[-0.2606658935546875,0.9654290676116943,0.9654290676116943],"min":[-1,-0.9654290676116943,-0.9654290676116943],"type":"VEC3"},{"bufferView":58,"componentType":5126,"count":272,"max":[12.530474662780762,12.4423189163208],"min":[-12.530474662780762,-10.438353538513184],"type":"VEC2"},{"bufferView":59,"componentType":5125,"count":354,"max":[271],"min":[0],"type":"SCALAR"},{"bufferView":60,"componentType":5126,"count":116,"max":[-0.6499999761581421,0.5550000071525574,0.8948862552642822],"min":[-0.6499999761581421,0.04500001668930054,0.3848862946033478],"type":"VEC3"},{"bufferView":61,"componentType":5126,"count":116,"max":[-1,0,0],"min":[-1,0,0],"type":"VEC3"},{"bufferView":62,"componentType":5126,"count":116,"max":[10.0393705368042,11.0393705368042],"min":[-10.0393705368042,-9.0393705368042],"type":"VEC2"},{"bufferView":63,"componentType":5125,"count":144,"max":[115],"min":[0],"type":"SCALAR"}],"materials":[{"pbrMetallicRoughness":{"baseColorFactor":[0.5725490196078431,0,0.023529411764705882,1],"metallicFactor":0,"roughnessFactor":0.22058823704719543},"alphaMode":"BLEND","name":"paintRed"},{"pbrMetallicRoughness":{"metallicFactor":0,"roughnessFactor":1},"alphaMode":"BLEND","name":"plastic"},{"pbrMetallicRoughness":{"baseColorFactor":[0.0196078431372549,0.7568627450980392,1,1],"metallicFactor":0,"roughnessFactor":0},"alphaMode":"BLEND","name":"window"},{"pbrMetallicRoughness":{"baseColorFactor":[0,0.8392156862745098,1,1],"metallicFactor":1,"roughnessFactor":0.6029411554336548},"alphaMode":"BLEND","name":"_defaultMat"},{"pbrMetallicRoughness":{"baseColorFactor":[0.1843137254901961,0.1803921568627451,0.1803921568627451,1],"metallicFactor":1,"roughnessFactor":1},"alphaMode":"BLEND","name":"carTire.014"},{"pbrMetallicRoughness":{"metallicFactor":1,"roughnessFactor":1},"alphaMode":"BLEND","name":"plastic.015"},{"pbrMetallicRoughness":{"baseColorFactor":[1,0.8509803921568627,0.03137254901960784,1],"metallicFactor":0,"roughnessFactor":0.15441176295280457},"alphaMode":"BLEND","name":"paintYellow"}],"meshes":[{"primitives":[{"mode":1,"attributes":{"POSITION":0,"NORMAL":1,"TEXCOORD_0":2},"indices":3,"material":0}]},{"primitives":[{"mode":1,"attributes":{"POSITION":4,"NORMAL":5,"TEXCOORD_0":6},"indices":7,"material":1}]},{"primitives":[{"mode":1,"attributes":{"POSITION":8,"NORMAL":9,"TEXCOORD_0":10},"indices":11,"material":2}]},{"primitives":[{"mode":1,"attributes":{"POSITION":12,"NORMAL":13,"TEXCOORD_0":14},"indices":15,"material":3}]},{"primitives":[{"mode":1,"attributes":{"POSITION":16,"NORMAL":17,"TEXCOORD_0":18},"indices":19,"material":4}]},{"primitives":[{"mode":1,"attributes":{"POSITION":20,"NORMAL":21,"TEXCOORD_0":22},"indices":23,"material":5}]},{"primitives":[{"mode":1,"attributes":{"POSITION":24,"NORMAL":25,"TEXCOORD_0":26},"indices":27,"material":6}]},{"primitives":[{"mode":1,"attributes":{"POSITION":28,"NORMAL":29,"TEXCOORD_0":30},"indices":31,"material":4}]},{"primitives":[{"mode":1,"attributes":{"POSITION":32,"NORMAL":33,"TEXCOORD_0":34},"indices":35,"material":5}]},{"primitives":[{"mode":1,"attributes":{"POSITION":36,"NORMAL":37,"TEXCOORD_0":38},"indices":39,"material":6}]},{"primitives":[{"mode":1,"attributes":{"POSITION":40,"NORMAL":41,"TEXCOORD_0":42},"indices":43,"material":4}]},{"primitives":[{"mode":1,"attributes":{"POSITION":44,"NORMAL":45,"TEXCOORD_0":46},"indices":47,"material":5}]},{"primitives":[{"mode":1,"attributes":{"POSITION":48,"NORMAL":49,"TEXCOORD_0":50},"indices":51,"material":6}]},{"primitives":[{"mode":1,"attributes":{"POSITION":52,"NORMAL":53,"TEXCOORD_0":54},"indices":55,"material":4}]},{"primitives":[{"mode":1,"attributes":{"POSITION":56,"NORMAL":57,"TEXCOORD_0":58},"indices":59,"material":5}]},{"primitives":[{"mode":1,"attributes":{"POSITION":60,"NORMAL":61,"TEXCOORD_0":62},"indices":63,"material":6}]}]}