<svg width="184" height="100" viewBox="0 0 184 100" fill="none" xmlns="http://www.w3.org/2000/svg">
<path fill-rule="evenodd" clip-rule="evenodd" d="M153.402 16.9641H156.531C157.527 16.9641 158.38 17.1426 158.949 17.6783C159.518 18.0354 159.944 18.7497 160.229 19.2854C160.514 19.9997 160.656 20.714 160.798 21.4283C160.94 22.3211 160.94 23.0354 160.94 23.5711V39.6423C160.94 41.6066 161.224 43.2137 161.936 44.4637C162.647 45.7137 163.5 46.785 164.638 47.4993C165.634 48.2136 166.914 48.7493 168.052 49.1065C169.332 49.4636 170.47 49.6422 171.465 49.6422V49.8207C170.582 49.8207 169.586 49.9614 168.478 50.1179L168.052 50.1779C166.772 50.3565 165.634 50.8921 164.638 51.6065C163.642 52.3207 162.647 53.3921 161.936 54.8207C161.224 56.2492 160.94 58.2134 160.94 60.535V75.713C160.94 76.4275 160.94 77.1415 160.798 77.8561C160.656 78.7491 160.514 79.4631 160.087 79.9992C159.802 80.7132 159.234 81.2487 158.522 81.6062C157.811 81.9632 156.957 82.3202 155.677 82.3202H153.259V99.9988H163.358C164.78 99.9988 166.203 99.6413 167.625 99.1058C169.047 98.5703 170.47 97.6772 171.75 96.6057C173.03 95.5341 174.026 93.9271 174.879 92.1415C175.732 90.356 176.017 88.2129 176.017 85.7134V65.7131C176.017 64.1061 176.302 62.856 176.87 61.9636C177.439 61.0705 178.15 60.3565 179.004 59.8205C179.857 59.285 180.71 58.928 181.564 58.7489C182.417 58.5704 183.129 58.5704 183.555 58.5704V41.6066C182.986 41.6066 182.417 41.6066 181.564 41.428C180.71 41.2494 179.857 41.0709 179.146 40.5351C178.292 39.9994 177.724 39.4638 177.012 38.5709C176.302 37.678 176.159 36.6067 176.159 35.1781V14.2855C176.159 11.7855 175.732 9.64272 175.021 7.85701C174.168 6.07135 173.172 4.64279 171.892 3.39281C170.612 2.3214 169.332 1.42855 167.767 0.892844C166.345 0.357138 164.923 0 163.5 0H153.402V16.9641ZM30.1533 16.9653H27.0242C26.0286 16.9653 25.1752 17.1438 24.6062 17.6796C24.0373 18.0367 23.6106 18.751 23.3262 19.2867C23.0417 20.0009 22.8994 20.7152 22.7572 21.4295C22.615 22.3223 22.615 23.0366 22.615 23.5724V39.6435C22.615 41.6078 22.3305 43.215 21.6194 44.4649C20.9082 45.7149 20.0548 46.7863 18.917 47.5006C17.9213 48.2149 16.6412 48.7506 15.5034 49.1077C14.2232 49.4649 13.0854 49.6434 12.0898 49.6434V49.822C12.9734 49.822 13.9691 49.9626 15.0768 50.1191L15.5034 50.1791C16.7835 50.3577 17.9213 50.8934 18.917 51.6077C19.9126 52.322 20.9082 53.3933 21.6194 54.8219C22.3305 56.2505 22.615 58.2146 22.615 60.5362V75.7147C22.615 76.4287 22.615 77.1433 22.7572 77.8572C22.8994 78.7503 23.0417 79.4643 23.4684 80.0003C23.7529 80.7143 24.3218 81.2504 25.0329 81.6074C25.7441 81.9644 26.5975 82.3214 27.8776 82.3214H30.2956V100H20.1971C18.7747 100 17.3524 99.6424 15.93 99.1069C14.5077 98.5715 13.0854 97.6784 11.8053 96.6068C10.5252 95.5359 9.52957 93.9282 8.6762 92.1427C7.82277 90.3572 7.53833 88.2141 7.53833 85.7145V65.7149C7.53833 64.1073 7.25384 62.8578 6.68491 61.9647C6.11603 61.0717 5.40484 60.3577 4.55144 59.8216C3.69805 59.2861 2.84465 58.9291 1.99126 58.7506C1.13786 58.5721 0.426698 58.5716 0 58.5716V41.6078C0.568922 41.6078 1.13788 41.6078 1.99126 41.4292C2.84465 41.2507 3.69805 41.0721 4.40921 40.5364C5.26261 40.0007 5.83154 39.465 6.54269 38.5721C7.25384 37.6793 7.39612 36.6079 7.39612 35.1793V14.2867C7.39612 11.7868 7.82277 9.64394 8.53398 7.85828C9.38735 6.07257 10.383 4.64404 11.6631 3.39405C12.9432 2.32264 14.2232 1.4298 15.7878 0.894089C17.2102 0.358381 18.6325 0.00124334 20.0548 0.00124334H30.1533V16.9653ZM121.939 63.1421L63.1001 3.57117H49.1073V17.738L107.946 77.309L97.4641 87.9216L104.436 94.98L116.5 82.615L132.421 98.4842C134.349 100.437 137.465 100.437 139.393 98.4842L142.903 94.93C144.831 92.9776 144.831 89.824 142.903 87.8716L127.18 71.9523L139.393 59.5879L132.421 52.5295L121.939 63.1421ZM134.448 17.688L111.012 41.4162L97.019 27.2994L120.455 3.57117H134.448V17.688ZM72.5436 52.0789L86.5368 66.4457L75.6096 77.309L86.0918 87.9216L79.1201 94.98L67.0556 82.615L51.1345 98.5342C49.2061 100.487 46.0911 100.487 44.1628 98.5342L40.6523 94.98C38.7239 93.0276 38.7239 89.874 40.6523 87.9216L56.3756 71.9523L44.1628 59.5879L51.1345 52.5295L61.6164 63.1421L72.5436 52.0789Z" fill="white"/>
</svg>
