<svg width="138" height="104" viewBox="0 0 138 104" fill="none" xmlns="http://www.w3.org/2000/svg">
<path d="M8.57022 1.39512C3.08927 3.78681 0.697576 8.37089 0.398615 17.6387L0 25.8103L14.8484 36.6725L29.5972 47.6345L29.8961 28.6006L30.1951 9.46708L26.9065 6.77643C22.8207 3.3882 16.1439 -2.88039e-05 13.5529 -2.88039e-05C12.5564 0.0996249 10.2643 0.697547 8.57022 1.39512Z" fill="white"/>
<path d="M114.602 4.28511L108.324 8.57022L108.025 28.4013C107.825 44.2463 108.025 47.9335 109.021 47.1362C109.719 46.638 116.495 41.5556 124.069 36.0747L137.721 25.91V18.6353C137.721 10.2643 135.828 5.68027 130.746 2.19238C125.763 -1.19584 121.877 -0.697575 114.602 4.28511Z" fill="white"/>
<path d="M36.0746 33.1847V52.4179L52.0192 64.177C60.7888 70.6545 68.6614 75.7369 69.4587 75.5375C70.3555 75.3382 77.9292 70.1562 86.3998 63.8781L101.846 52.5175V33.1847C101.846 17.9377 101.547 13.9515 100.65 14.5494C99.9527 15.0477 92.4787 20.429 84.2074 26.6076L68.9604 37.8684L53.813 26.6076C45.4421 20.429 37.9681 15.0477 37.3701 14.5494C36.3736 13.9515 36.0746 17.9377 36.0746 33.1847Z" fill="white"/>
<path d="M0.19928 66.2697V98.7569L2.69062 101.248C5.08231 103.64 5.48093 103.74 17.3397 103.441L29.5971 103.142L29.8961 79.2247L30.0954 55.3078L16.5425 45.3425C9.06846 39.8615 2.29201 34.9785 1.59443 34.5798C0.398587 33.8823 0.19928 39.0643 0.19928 66.2697Z" fill="white"/>
<path d="M122.474 44.5452L107.825 55.3078L108.124 79.2247L108.324 103.142L120.581 103.441C132.44 103.74 132.838 103.64 135.23 101.248L137.722 98.7569V66.2697C137.722 48.4317 137.622 33.8823 137.423 33.8823C137.223 33.8823 130.546 38.6657 122.474 44.5452Z" fill="white"/>
</svg>
