<svg width="100" height="100" viewBox="0 0 100 100" fill="none" xmlns="http://www.w3.org/2000/svg">
<path d="M92.6014 0H7.37863C7.35196 0 7.32195 0 7.28861 0C3.29088 0 0.0466791 3.21419 0 7.19859V92.7947C0.0466791 96.7825 3.29088 100 7.28861 100C7.32195 100 7.35196 100 7.3853 100H92.5914C92.618 100 92.6514 100 92.6847 100C96.6858 100 99.9366 96.7891 100 92.8014V92.7947V7.20525C99.9366 3.21419 96.6858 0 92.6814 0C92.648 0 92.618 0 92.5847 0H92.6014ZM29.6579 85.2161H14.8073V37.5H29.6579V85.2161ZM22.2359 30.9716C17.4847 30.9716 13.637 27.1206 13.637 22.3726C13.637 17.6247 17.488 13.7737 22.2359 13.7737C26.9839 13.7737 30.8349 17.6214 30.8349 22.3693C30.8349 22.3726 30.8349 22.376 30.8349 22.3826C30.8349 27.1272 26.9872 30.9749 22.2426 30.9749C22.2393 30.9749 22.2359 30.9749 22.2326 30.9749L22.2359 30.9716ZM85.1927 85.2161H70.3854V62.0132C70.3854 56.4784 70.2721 49.3598 62.67 49.3598C54.948 49.3598 53.771 55.3814 53.771 61.6064V85.2194H38.9637V37.5033H53.1875V44.0084H53.3809C56.1416 39.3572 61.1363 36.2897 66.8478 36.2897C67.0512 36.2897 67.2513 36.293 67.4513 36.2997H67.4213C82.4253 36.2997 85.1994 46.1756 85.1994 59.0291V85.2194L85.1927 85.2161Z" fill="white"/>
</svg>
